PathFileType	4	(X/Y/Z)	 s01c0403.trc
DataRate	CameraRate	NumFrames	NumMarkers	Units	OrigDataRate	OrigDataStartFrame	OrigNumFrames
200	200	5	47	mm	200	1251	2000
Frame#	Time	racr			lacr			c7			jug			rlel			rdr			llel			ldr			lic			ric			lasi			rasi			rpsi			lpsi			rgt			lgt			rth1			rth2			rth3			rth4			rlfc			rsh1			rsh2			rsh3			rsh4			rlmal			rmmal			rcal			rtoe			rmt5			lth1			lth2			lth4			lth3			llfc			lsh1			lsh2			lsh3			lsh4			llmal			lmmal			lcal			ltoe			lmt5			SBIKE			LBIKE			RBIKE			
		X1	Y1	Z1	X2	Y2	Z2	X3	Y3	Z3	X4	Y4	Z4	X5	Y5	Z5	X6	Y6	Z6	X7	Y7	Z7	X8	Y8	Z8	X9	Y9	Z9	X10	Y10	Z10	X11	Y11	Z11	X12	Y12	Z12	X13	Y13	Z13	X14	Y14	Z14	X15	Y15	Z15	X16	Y16	Z16	X17	Y17	Z17	X18	Y18	Z18	X19	Y19	Z19	X20	Y20	Z20	X21	Y21	Z21	X22	Y22	Z22	X23	Y23	Z23	X24	Y24	Z24	X25	Y25	Z25	X26	Y26	Z26	X27	Y27	Z27	X28	Y28	Z28	X29	Y29	Z29	X30	Y30	Z30	X31	Y31	Z31	X32	Y32	Z32	X33	Y33	Z33	X34	Y34	Z34	X35	Y35	Z35	X36	Y36	Z36	X37	Y37	Z37	X38	Y38	Z38	X39	Y39	Z39	X40	Y40	Z40	X41	Y41	Z41	X42	Y42	Z42	X43	Y43	Z43	X44	Y44	Z44	X45	Y45	Z45	X46	Y46	Z46	X47	Y47	Z47	
1251	6.2550	717.607163	1339.329036	-44.518829	739.093061	1290.694343	-418.547057	716.408473	1419.993912	-228.642763	703.248301	1254.660610	-219.351025	579.828525	1090.457853	65.707121	707.219559	896.824706	-30.069416	569.434145	1079.642202	-550.213594	694.849987	896.545466	-450.592740	362.364668	1204.850227	-416.643347	324.881722	1234.538688	-98.407314	351.048470	1156.396086	-399.317809	357.178819	1187.842517	-128.338305	206.970665	1267.668221	-214.559225	212.752287	1261.936126	-320.973090	285.586446	1134.640595	-62.987288	261.531059	1073.353988	-438.200286	383.800451	1055.108224	-47.866624	459.874904	1021.117689	-47.694533	539.099483	977.846301	-55.082537	485.355973	1069.167446	-65.166468	608.489489	900.124817	-77.634848	530.288135	827.414290	-53.788009	470.546656	766.072261	-56.853442	402.267914	710.499547	-71.100221	505.087569	732.057187	-91.981640	291.033369	627.283248	-94.995300	334.280554	616.566829	-170.829121	236.400336	626.566375	-150.190721	434.565726	442.151378	-132.858520	333.995040	484.600739	-64.950584	260.759320	955.650114	-445.689083	289.977017	870.674852	-447.173640	339.599100	886.552233	-451.685422	308.396394	788.901859	-432.422463	328.040251	663.548713	-422.073671	246.840902	590.562525	-449.120315	210.034560	512.661287	-440.643975	172.225403	436.562801	-427.377075	264.434402	489.892874	-421.500825	123.718875	320.648296	-413.462504	88.318778	286.212321	-379.450827	75.638452	321.784540	-371.748492	275.485388	129.776268	-376.445324	180.228083	178.132661	-442.733394	-225.481280	892.888789	-254.027573	-13.385240	84.882774	-457.916619	-23.158085	81.011922	-57.854613	
1252	6.2600	717.433665	1336.717468	-43.126503	739.532129	1291.044514	-416.647049	716.515606	1419.241797	-226.597368	702.269156	1253.726969	-218.110222	577.889632	1089.088659	66.896283	706.736425	896.961473	-30.128990	571.039379	1079.893978	-548.824932	695.516792	896.417166	-449.934377	362.057549	1207.001312	-416.001909	323.925919	1236.012863	-97.675118	351.100091	1158.166262	-398.645757	357.435812	1189.893755	-126.485814	206.996348	1268.393277	-214.341714	212.539235	1263.161381	-320.549746	285.177826	1135.595805	-63.321697	262.495950	1074.627541	-438.011143	383.301850	1054.877062	-48.395481	459.071061	1020.087259	-48.375482	537.869951	976.293308	-55.824419	484.969628	1068.114889	-65.777472	606.481917	896.815106	-79.158721	529.283513	823.200297	-55.362129	469.801154	761.583446	-58.020143	401.759171	705.683738	-71.261258	504.518966	727.426667	-92.806398	292.486539	619.584477	-94.126125	335.409774	610.910640	-170.835285	236.558970	616.815359	-149.494667	444.144391	442.033115	-132.034806	341.324236	479.290903	-64.255414	263.821078	956.297069	-444.946992	294.282954	871.865174	-445.734807	343.675655	888.540040	-450.074491	314.189340	790.424530	-430.913908	332.957920	665.244098	-420.752512	249.834318	594.146409	-447.976579	210.985391	517.225323	-439.473671	171.181063	442.308069	-426.351804	264.714532	493.031157	-420.175690	119.189897	327.930565	-412.922564	91.221300	294.984323	-371.848383	70.897083	329.757260	-370.688643	265.905508	132.654572	-376.678682	172.088027	183.968162	-442.280418	-225.407282	892.987888	-253.727245	-13.383729	85.018748	-457.875469	-23.140494	81.058717	-57.800185	
1253	6.2650	716.968535	1333.808204	-43.131266	739.919595	1291.249447	-414.826241	716.610082	1418.556056	-224.855305	701.268884	1252.740250	-217.134649	576.386458	1087.564301	68.150950	706.209695	897.001898	-30.098502	572.482252	1080.058299	-547.322525	696.048125	896.345903	-449.444435	361.595871	1209.365496	-415.657912	323.383598	1237.389210	-96.967767	351.114067	1160.182266	-398.176660	356.982453	1189.683233	-126.162621	207.104821	1268.958449	-213.981526	212.267225	1264.275458	-319.953803	284.833571	1136.236835	-63.655064	263.205334	1076.012249	-437.768126	382.893591	1054.240444	-48.683173	458.284692	1018.641638	-49.021820	536.645006	973.994033	-56.719112	484.585961	1066.371716	-66.248783	605.461814	892.617801	-80.805930	527.470462	818.198169	-56.964749	468.489864	756.155898	-59.109103	400.938401	699.515655	-71.785517	503.447592	721.867238	-93.605984	293.791023	610.845124	-93.615691	336.348742	604.084778	-171.037284	236.973661	605.889607	-148.563812	452.780664	441.267264	-131.747744	348.430082	473.286269	-63.527147	267.123735	956.734623	-444.101974	299.127291	873.032570	-444.280919	348.280135	890.624676	-448.134708	320.730036	792.002813	-429.483747	338.723310	666.931863	-419.402918	253.781098	597.738984	-446.924289	212.809150	522.086083	-438.485611	170.867087	448.243691	-425.545203	265.801792	496.331619	-418.819943	114.809163	336.276720	-413.575371	100.751170	307.900171	-363.337546	66.801521	338.150622	-369.687254	256.651536	136.019387	-376.832874	164.407210	190.185515	-441.711546	-225.299779	893.087464	-253.454488	-13.331151	85.222649	-457.857843	-23.103046	81.091961	-57.758112	
1254	6.2700	717.219164	1331.241135	-40.546627	740.287240	1291.357883	-413.169854	716.715117	1417.795243	-223.192073	700.357788	1251.825139	-216.298434	574.432170	1085.862649	69.432026	705.682257	897.005469	-29.973873	573.583801	1080.211576	-545.951993	696.401972	896.290908	-449.164651	360.985495	1211.835412	-415.669748	323.086793	1238.366587	-96.267533	351.006521	1162.215234	-397.832104	357.356149	1191.165919	-124.403731	207.229886	1269.476686	-213.409490	211.862556	1265.286692	-319.170377	284.484200	1136.731221	-63.997326	263.618965	1077.412056	-437.525548	382.566150	1053.070611	-49.000535	457.473468	1016.585610	-49.618198	535.409259	971.029653	-57.729255	484.312815	1064.063657	-66.665608	604.388478	887.721059	-82.689423	525.142538	812.448659	-58.514079	466.867129	749.717544	-60.144594	399.866048	692.248983	-72.500501	502.226053	715.542844	-94.319814	294.791219	601.398063	-93.472018	337.199640	596.152727	-171.450857	237.501864	593.992347	-148.009908	460.878022	439.811995	-131.408794	355.279287	466.448027	-62.894156	270.571338	957.077049	-443.340389	304.381492	874.179839	-442.872471	353.169585	892.823879	-446.043594	327.973438	793.769482	-428.166317	345.169920	668.556917	-417.946782	258.423842	601.516153	-445.966376	215.386666	527.036173	-437.763247	171.313265	454.421151	-425.000108	267.462534	499.891186	-417.496748	112.139125	343.555158	-411.908077	110.320770	320.838627	-356.060399	63.290683	347.136309	-368.783612	247.743574	139.704449	-377.032757	157.076446	196.857474	-441.236166	-225.125197	893.206565	-253.085357	-13.274327	85.418443	-457.781403	-23.054611	81.116378	-57.732341	
1255	6.2750	716.795086	1328.094456	-40.585398	740.642593	1291.407972	-411.648974	716.790209	1417.142531	-221.746738	699.483534	1250.676959	-215.615968	572.271532	1084.043790	70.680676	705.179913	896.896742	-29.788309	574.426607	1080.360352	-544.793638	696.647959	895.949062	-449.164693	360.122769	1214.602264	-415.976935	322.973847	1239.125035	-95.724998	350.828664	1164.277539	-397.498967	357.087720	1190.186659	-124.370614	207.501300	1269.886890	-212.685189	211.599986	1266.050934	-318.149256	284.294528	1136.856652	-64.318851	264.012512	1078.696344	-437.291509	382.272802	1051.441935	-49.274113	456.760490	1013.925404	-50.288273	533.999653	967.445720	-58.788832	484.803625	1061.071994	-68.024505	602.024923	881.623695	-83.980791	522.482982	805.679575	-59.633411	464.999938	742.307456	-61.143300	398.716990	683.945595	-73.245328	500.779162	708.307014	-95.102029	295.728053	591.122047	-93.584152	338.067812	587.222885	-172.073894	238.737380	580.740639	-148.081347	468.227967	437.494270	-130.731896	361.449714	459.090673	-62.306481	274.144613	957.258148	-442.605145	309.935860	875.312349	-441.543538	358.375288	895.048604	-443.750576	335.470893	795.470372	-426.855432	352.122456	670.415946	-416.774107	263.681530	605.293968	-445.210307	218.597912	531.987419	-437.258349	172.419260	460.663531	-424.652406	269.654607	503.540942	-416.141256	109.551909	352.336731	-411.913712	120.040814	333.381397	-348.835169	60.376845	356.400798	-368.010337	239.218191	143.952352	-377.286273	150.141688	203.978133	-440.860718	-224.927068	893.315828	-252.706286	-13.238225	85.586862	-457.743977	-23.009711	81.134455	-57.676966	
